<svg xmlns="http://www.w3.org/2000/svg" width="1200" height="520" viewBox="0 0 1200 520" role="img" aria-labelledby="title desc">
  <title id="title">Muhammad Asif Nawaz — software engineer</title>
  <desc id="desc">Animated premium dark interface with editorial profile typography, a floating three-dimensional system core, orbiting nodes, and live signal graphics.</desc>
  <defs>
    <linearGradient id="bg" x1="0" y1="0" x2="1" y2="1"><stop stop-color="#050505"/><stop offset="0.55" stop-color="#090A0A"/><stop offset="1" stop-color="#101311"/></linearGradient>
    <linearGradient id="edge" x1="0" y1="0" x2="1" y2="0"><stop stop-color="#B8FF5A" stop-opacity="0.85"/><stop offset="0.42" stop-color="#F4F4EC" stop-opacity="0.16"/><stop offset="1" stop-color="#6CE5E8" stop-opacity="0.65"/></linearGradient>
    <linearGradient id="faceA" x1="0" y1="0" x2="1" y2="1"><stop stop-color="#D8FF9B" stop-opacity="0.34"/><stop offset="1" stop-color="#B8FF5A" stop-opacity="0.04"/></linearGradient>
    <linearGradient id="faceB" x1="0" y1="0" x2="1" y2="1"><stop stop-color="#6CE5E8" stop-opacity="0.22"/><stop offset="1" stop-color="#17201C" stop-opacity="0.2"/></linearGradient>
    <radialGradient id="core"><stop stop-color="#F7FFD9"/><stop offset="0.16" stop-color="#B8FF5A"/><stop offset="0.46" stop-color="#6CE5E8"/><stop offset="1" stop-color="#0C1815"/></radialGradient>
    <pattern id="microgrid" width="28" height="28" patternUnits="userSpaceOnUse"><path d="M28 0H0V28" fill="none" stroke="#F4F4EC" stroke-opacity="0.035"/></pattern>
    <filter id="softGlow" x="-80%" y="-80%" width="260%" height="260%"><feGaussianBlur stdDeviation="9" result="b"/><feMerge><feMergeNode in="b"/><feMergeNode in="SourceGraphic"/></feMerge></filter>
    <filter id="deepShadow" x="-80%" y="-80%" width="260%" height="260%"><feDropShadow dx="0" dy="22" stdDeviation="20" flood-color="#000000" flood-opacity="0.9"/></filter>
    <clipPath id="frame"><rect x="10" y="10" width="1180" height="500" rx="18"/></clipPath>
    <style>
      .signal{stroke-dasharray:8 12;animation:signal 4s linear infinite}.blink{animation:blink 2.4s ease-in-out infinite}.float{animation:float 7s ease-in-out infinite}.floatSlow{animation:floatSlow 10s ease-in-out infinite}.pulse{animation:pulse 3.2s ease-in-out infinite}.scan{animation:scan 7s linear infinite}.ticker{animation:ticker 12s linear infinite}
      @keyframes signal{to{stroke-dashoffset:-200}}@keyframes blink{0%,100%{opacity:.35}50%{opacity:1}}@keyframes float{0%,100%{opacity:.82}50%{opacity:1}}@keyframes floatSlow{0%,100%{opacity:.68}50%{opacity:1}}@keyframes pulse{0%,100%{opacity:.35}50%{opacity:.9}}@keyframes scan{0%{transform:translateX(-120px);opacity:0}8%,85%{opacity:.5}100%{transform:translateX(1180px);opacity:0}}@keyframes ticker{0%{transform:translateX(0)}100%{transform:translateX(-420px)}}
      @media(prefers-reduced-motion:reduce){.signal,.blink,.float,.floatSlow,.pulse,.scan,.ticker{animation:none!important}}
    </style>
  </defs>

  <rect x="10" y="10" width="1180" height="500" rx="18" fill="url(#bg)" stroke="url(#edge)" stroke-width="1.5"/>
  <g clip-path="url(#frame)">
    <rect x="10" y="10" width="1180" height="500" fill="url(#microgrid)"/>
    <ellipse cx="922" cy="258" rx="285" ry="270" fill="#B8FF5A" opacity="0.025"/>
    <path d="M640 10L1040 510" stroke="#6CE5E8" stroke-opacity="0.035" stroke-width="110"/>
    <rect class="scan" x="0" y="10" width="110" height="500" fill="url(#edge)" opacity="0.14"/>

    <g font-family="Consolas, SFMono-Regular, Menlo, monospace" font-size="11" letter-spacing="2">
      <text x="38" y="42" fill="#B8FF5A">MAN / SYSTEM PROFILE</text>
      <text x="962" y="42" fill="#747A74">02.10.2026 / INDEX</text>
      <circle class="blink" cx="1158" cy="38" r="4" fill="#B8FF5A"/>
    </g>
    <path d="M38 58H1162" stroke="#F4F4EC" stroke-opacity="0.1"/>

    <g transform="translate(56 104)">
      <text x="0" y="0" fill="#777C77" font-family="Consolas, SFMono-Regular, Menlo, monospace" font-size="12" letter-spacing="2.5">SOFTWARE ENGINEER / AI SYSTEMS / INTERACTIVE WEB</text>
      <text x="0" y="76" fill="#F3F4EC" font-family="Segoe UI, Arial, sans-serif" font-size="58" font-weight="300" letter-spacing="-2">MUHAMMAD ASIF</text>
      <text x="0" y="138" fill="#F3F4EC" font-family="Segoe UI, Arial, sans-serif" font-size="58" font-weight="750" letter-spacing="-2">NAWAZ<tspan fill="#B8FF5A">.</tspan></text>
      <path d="M0 166H488" stroke="#F4F4EC" stroke-opacity="0.14"/><path d="M0 166H136" stroke="#B8FF5A" stroke-width="2"/>
      <text x="0" y="204" fill="#B9BDB9" font-family="Segoe UI, Arial, sans-serif" font-size="17">Product architecture, intelligent features, dependable delivery.</text>
      <text x="0" y="232" fill="#777C77" font-family="Segoe UI, Arial, sans-serif" font-size="14">Building software that can be used, inspected, and improved.</text>

      <g transform="translate(0 274)" font-family="Consolas, SFMono-Regular, Menlo, monospace" font-size="10" letter-spacing="1.4">
        <g><rect width="136" height="46" rx="3" fill="#0C0E0D" stroke="#F4F4EC" stroke-opacity="0.12"/><text x="14" y="18" fill="#666B66">FOCUS / 01</text><text x="14" y="34" fill="#EDEFE7">AI SYSTEMS</text></g>
        <g transform="translate(146)"><rect width="136" height="46" rx="3" fill="#0C0E0D" stroke="#F4F4EC" stroke-opacity="0.12"/><text x="14" y="18" fill="#666B66">FOCUS / 02</text><text x="14" y="34" fill="#EDEFE7">FULL-STACK</text></g>
        <g transform="translate(292)"><rect width="136" height="46" rx="3" fill="#0C0E0D" stroke="#F4F4EC" stroke-opacity="0.12"/><text x="14" y="18" fill="#666B66">FOCUS / 03</text><text x="14" y="34" fill="#EDEFE7">3D INTERFACE</text></g>
      </g>
    </g>

    <g transform="translate(914 256)" filter="url(#deepShadow)">
      <ellipse cx="0" cy="145" rx="218" ry="45" fill="#000" opacity="0.82"/>
      <ellipse cx="0" cy="138" rx="193" ry="37" fill="none" stroke="#F4F4EC" stroke-opacity="0.09"/>
      <ellipse cx="0" cy="138" rx="144" ry="27" fill="none" stroke="#B8FF5A" stroke-opacity="0.18" class="pulse"/>

      <g class="float">
        <g opacity="0.86">
          <path d="M0-122L108-65L0-8L-108-65Z" fill="url(#faceA)" stroke="#DFFFAC" stroke-opacity="0.55"/>
          <path d="M-108-65L0-8V105L-108 47Z" fill="#101815" fill-opacity="0.7" stroke="#B8FF5A" stroke-opacity="0.3"/>
          <path d="M108-65L0-8V105L108 47Z" fill="url(#faceB)" stroke="#6CE5E8" stroke-opacity="0.34"/>
          <path d="M0-122V-8M-108-65L0-8L108-65M0-8V105" fill="none" stroke="#F4F4EC" stroke-opacity="0.2"/>
        </g>
        <circle r="48" fill="#B8FF5A" opacity="0.08" filter="url(#softGlow)"/>
        <circle r="31" fill="url(#core)" filter="url(#softGlow)"/>
        <circle cx="-10" cy="-11" r="7" fill="#FFF" opacity="0.75"/>
      </g>

      <g fill="none" transform="rotate(-12)">
        <ellipse rx="174" ry="67" stroke="#6CE5E8" stroke-opacity="0.4" class="signal"/>
        <ellipse rx="132" ry="164" stroke="#B8FF5A" stroke-opacity="0.24" stroke-dasharray="4 13">
          <animateTransform attributeName="transform" type="rotate" from="0" to="360" dur="20s" repeatCount="indefinite"/>
        </ellipse>
      </g>
      <g>
        <animateTransform attributeName="transform" type="rotate" from="0" to="-360" dur="13s" repeatCount="indefinite"/>
        <circle cx="174" cy="0" r="6" fill="#B8FF5A" filter="url(#softGlow)"/>
        <circle cx="-174" cy="0" r="3" fill="#6CE5E8"/>
      </g>
      <g>
        <animateTransform attributeName="transform" type="rotate" from="0" to="360" dur="18s" repeatCount="indefinite"/>
        <circle cx="0" cy="-164" r="4" fill="#F4F4EC"/>
        <circle cx="0" cy="164" r="5" fill="#B8FF5A" opacity="0.75"/>
      </g>

      <g class="floatSlow" transform="translate(154 -118)" font-family="Consolas, monospace" font-size="9">
        <rect x="0" y="0" width="112" height="42" rx="3" fill="#0B0D0C" stroke="#F4F4EC" stroke-opacity="0.16"/>
        <text x="10" y="17" fill="#626862">SYSTEM STATE</text><text x="10" y="31" fill="#B8FF5A">OPERATIONAL</text>
      </g>
      <g class="float" transform="translate(-238 76)" font-family="Consolas, monospace" font-size="9">
        <rect width="116" height="42" rx="3" fill="#0B0D0C" stroke="#F4F4EC" stroke-opacity="0.16"/>
        <text x="10" y="17" fill="#626862">MODE</text><text x="10" y="31" fill="#EDEFE7">BUILD / REFINE</text>
      </g>
    </g>

    <path d="M38 456H1162" stroke="#F4F4EC" stroke-opacity="0.1"/>
    <g clip-path="url(#frame)" transform="translate(38 476)" font-family="Consolas, monospace" font-size="10" letter-spacing="2">
      <g class="ticker" fill="#656A65">
        <text x="0" y="0">TYPE-SAFE SYSTEMS</text><circle cx="166" cy="-4" r="2" fill="#B8FF5A"/><text x="186">EXPLAINABLE AI</text><circle cx="330" cy="-4" r="2" fill="#6CE5E8"/><text x="350">MOTION WITH PURPOSE</text><circle cx="560" cy="-4" r="2" fill="#B8FF5A"/><text x="580">API + DATA</text><circle cx="698" cy="-4" r="2" fill="#6CE5E8"/><text x="718">TESTED DELIVERY</text><circle cx="894" cy="-4" r="2" fill="#B8FF5A"/><text x="914">TYPE-SAFE SYSTEMS</text><circle cx="1080" cy="-4" r="2" fill="#B8FF5A"/><text x="1100">EXPLAINABLE AI</text>
      </g>
    </g>
  </g>
</svg>
